<svg width="338" height="390" viewBox="0 0 338 390" fill="none" xmlns="http://www.w3.org/2000/svg"><path d="M151.726 213.05C142.736 221.144 128.887 220.419 120.793 211.429C112.699 202.439 113.424 188.59 122.414 180.496L199.802 110.816C208.791 102.721 222.64 103.447 230.735 112.437C238.829 121.426 238.103 135.276 229.114 143.37L151.726 213.05Z" fill="#7D7C7C"/><path d="M170.657 313.899C161.667 321.993 147.818 321.267 139.723 312.278C131.629 303.288 132.355 289.439 141.345 281.344L215.305 214.75C224.295 206.655 238.144 207.381 246.239 216.371C254.333 225.36 253.607 239.21 244.617 247.304L170.657 313.899Z" fill="#7D7C7C"/><path d="M251.019 5.75296C260.008 -2.34131 273.857 -1.6155 281.952 7.3741C290.046 16.3637 289.32 30.2129 280.331 38.3072L161.822 145.013L132.51 112.459L251.019 5.75296Z" fill="url(#paint0_linear_32_95)"/><path d="M140.58 311.506C148.674 320.496 162.524 321.222 171.513 313.127L247.473 244.733C248.248 244.035 248.962 243.294 249.614 242.517L279.07 275.23L183.12 361.623C138.172 402.094 68.9261 398.465 28.4547 353.517C-12.0166 308.569 -8.38759 239.323 36.5604 198.852L132.51 112.459L161.822 145.013L123.271 179.725C114.281 187.819 113.555 201.668 121.649 210.658C129.744 219.647 143.593 220.373 152.583 212.279L191.134 177.567L220.589 210.281C219.748 210.848 218.936 211.48 218.161 212.178L142.201 280.573C133.212 288.667 132.486 302.517 140.58 311.506Z" fill="url(#paint1_linear_32_95)"/><path d="M274.804 102.23C283.793 94.1361 297.643 94.8619 305.737 103.852C313.831 112.841 313.105 126.69 304.116 134.785L220.446 210.121L191.134 177.567L274.804 102.23Z" fill="url(#paint2_linear_32_95)"/><path d="M301.159 196.394C310.149 188.299 323.998 189.025 332.092 198.015C340.186 207.004 339.461 220.854 330.471 228.948L279.07 275.23L249.758 242.676L301.159 196.394Z" fill="url(#paint3_linear_32_95)"/><path d="M152.297 212.536C143.307 220.63 129.458 219.904 121.364 210.915C113.27 201.925 113.995 188.076 122.985 179.982L199.802 110.816C208.791 102.721 222.64 103.447 230.735 112.437C238.829 121.426 238.103 135.276 229.114 143.37L152.297 212.536Z" fill="url(#paint4_linear_32_95)"/><path d="M171.228 313.384C162.238 321.479 148.389 320.753 140.295 311.763C132.2 302.774 132.926 288.924 141.916 280.83L215.877 214.235C224.866 206.141 238.715 206.867 246.81 215.857C254.904 224.846 254.178 238.695 245.189 246.79L171.228 313.384Z" fill="url(#paint5_linear_32_95)"/><defs><linearGradient id="paint0_linear_32_95" x1="270.613" y1="135.478" x2="14.8905" y2="365.731" gradientUnits="userSpaceOnUse"><stop stop-color="#D9D9D9"/><stop offset="1" stop-color="#D9D9D9" stop-opacity="0"/></linearGradient><linearGradient id="paint1_linear_32_95" x1="270.613" y1="135.478" x2="14.8905" y2="365.731" gradientUnits="userSpaceOnUse"><stop stop-color="#D9D9D9"/><stop offset="1" stop-color="#D9D9D9" stop-opacity="0"/></linearGradient><linearGradient id="paint2_linear_32_95" x1="270.613" y1="135.478" x2="14.8905" y2="365.731" gradientUnits="userSpaceOnUse"><stop stop-color="#D9D9D9"/><stop offset="1" stop-color="#D9D9D9" stop-opacity="0"/></linearGradient><linearGradient id="paint3_linear_32_95" x1="270.613" y1="135.478" x2="14.8905" y2="365.731" gradientUnits="userSpaceOnUse"><stop stop-color="#D9D9D9"/><stop offset="1" stop-color="#D9D9D9" stop-opacity="0"/></linearGradient><linearGradient id="paint4_linear_32_95" x1="230.735" y1="112.437" x2="121.364" y2="210.915" gradientUnits="userSpaceOnUse"><stop stop-color="#CCC8C8"/><stop offset="1" stop-color="#312F2F"/></linearGradient><linearGradient id="paint5_linear_32_95" x1="276.365" y1="189.244" x2="144.864" y2="307.649" gradientUnits="userSpaceOnUse"><stop stop-color="#CCC8C8"/><stop offset="1" stop-color="#312F2F"/></linearGradient></defs></svg>